<?xml version="1.0" encoding="UTF-8"?>
<svg id="Layer_1" data-name="Layer 1" xmlns="http://www.w3.org/2000/svg" version="1.1" viewBox="0 0 154.6 154.6">
  <defs>
    <style>
      .cls-1 {
        fill: #fdedde;
      }

      .cls-1, .cls-2, .cls-3, .cls-4, .cls-5, .cls-6, .cls-7, .cls-8, .cls-9, .cls-10, .cls-11, .cls-12 {
        stroke-width: 0px;
      }

      .cls-2 {
        fill: #39687d;
      }

      .cls-3 {
        fill: #492841;
      }

      .cls-4 {
        fill: #05272c;
      }

      .cls-5 {
        fill: #8fcadf;
      }

      .cls-6 {
        fill: #39687d;
      }

      .cls-7 {
        fill: #7a91ad;
      }

      .cls-8 {
        fill: #fad293;
      }

      .cls-9 {
        fill: #7a91ad;
      }

      .cls-10 {
        fill: #fdedde;
      }

      .cls-11 {
        fill: #1c4651;
      }

      .cls-12 {
        fill: #c6545b;
      }
    </style>
  </defs>
  <path class="cls-2" d="M109.5,117.7c-.7-2.1-1.4-4.2-1.5-6.5-.2-3.3-1.2-6.4-3.5-8.9-1.1-1.2-2.3-2.1-3.6-3.1-2.1-1.7-4.2-3.3-6.3-5-1.3-1-2-2.5-2.9-3.9-.2-.4-.5-.8-.7-1.2,0,0,0-.1-.1-.2-.3-.7-.6-1.4-.9-2.2,0,0,0-.2,0-.2-.5-1.2-.9-2.4-1.4-3.6-.1-.4-.3-.8-.4-1.1,0,0,0,0,0,0,0,0,0-.2-.1-.3h0s0,0,0,0h0s0,0,0,0c.1.1.3.3.4.5-.2-1-.3-2-.4-2.9,0-.3,0-.7-.1-1,0-.6-.1-1.2-.2-1.7-.1-1.9-.3-3.8-.4-5.7,0-.6,0-1.2,0-1.9,0-1.8,0-3.5,0-5.3h0c0-.2,0-.4,0-.6,0-.2,0-.4.1-.6,0-.3,0-.7-.5-.8,0,0-.2,0-.3,0h0c-.5,0-1,0-1.5,0-.4,0-.8,0-1.3,0,0,0-.1,0-.2,0-.1,0-.3,0-.4,0-1.2.2-2.3.3-3.5.5,0,0-.2,0-.2,0-3.7.7-7.3,1.8-10.8,3,0,0-.1,0-.2,0-2.3,1-4.6,2-7,3.1-1.2.6-2.4,1.3-3.6,1.9-.2,0-.3.2-.5.3-1.4.8-2.7,1.7-4.1,2.5-.5.3-1.1.7-1.6,1-.2.2-.4.3-.6.5-1,.8-2.1,1.7-3.1,2.5-.5.4-.9.7-1.4,1.1-2.8,2.1-5.6,4.2-8.4,6.3-.7.5-1.5.9-2.2,1.4-1,.6-1.9,1.2-2.9,1.7-1.3.6-2.5,1.2-3.8,1.8.5,0,1.1-.2,1.6-.2.2,0,.3,0,.5,0h0c3.3,0,6.6,0,10,0s7.2,0,10.7,0c3.5,0,7,0,10.5,0,.3,0,.6,0,.9,0c.8.2,1.5.6,2,1.5.9,1.6,1.9,3.2,2.8,4.8,0,0,0,0,0,0,.3.5.6,1,.9,1.4,1.6,2.6,3.1,5.2,5.4,7.3,1.5,1.4,3.2,2.3,5.1,2.8,2.4.7,4.8,1.4,7.2,2,1.8.5,3.2,1.6,4.2,3.2,1.2,1.9,2.4,3.9,3.6,5.8.5.8,1.1,1.5,1.9,2,0,0,0,0,0,0,.2.1.4.3.7.4,2.2,1,4.4,1.8,6.7,2.4.2,0,.4.2.6.3,0,0,0,0,0,0,0,0,0,0,0,0,.2,0,.5-.1.7-.2.6-.1,1.1-.3,1.7-.4,1.2-.3,2.4-.6,3.5-.9.2,0,.3,0,.5-.1-.4-1.3-.8-2.7-1.3-4ZM61.9,86.3h-.1s0,0,.1,0c.4,0,.9,0,1.3,0-.5,0-.9,0-1.3,0ZM74.2,84.5c.2,0,.3,0,.5-.1-.2,0-.3,0-.5.1-.9.2-1.9.5-2.8.7.9-.2,1.9-.4,2.8-.7ZM73.8,75c0,0-.1,0-.2,0,0,0,.1,0,.2,0,.3,0,.5.2.8.3-.2-.1-.5-.2-.8-.3Z"/>
  <path class="cls-1" d="M81,15.1h0s0,0,0,0c0,0,0,0,0,0h0Z"/>
  <polygon class="cls-1" points="75 15.2 75 15.8 75 15.2 75 15.2"/>
  <path class="cls-1" d="M80.2,23.4h-4.2c0-.1,0-.2,0-.3h0c0-.2,0-.3,0-.5s0-.4,0-.5c.1-1.1.6-2.1,1.2-2.6.2-.2.4-.2.6-.3h0s0,0,.1,0c0,0,0,0,0,0s0,0,0,0c0,0,0,0,0,0h0c.6,0,1.1.4,1.5,1,0,0,0,0,0,0,0,0,0,0,0,0,.5,1,.5,2.1.5,3.2Z"/>
  <path class="cls-2" d="M145.2,112.4c0,.2,0,.3-.1.5-.8,1.4-1.6,2.8-2.4,4.2,0,.1-.2.2-.3.3,0,.2-.1.3-.2.5-2.6,4.1-5.6,8-9,11.5-.9.9-1.8,1.8-2.7,2.7-.6.6-1.3,1.2-2,1.7-1,.8-1.9,1.7-2.9,2.5-4.8,3.8-9.9,7-15.4,9.6-1.1.5-2.2,1-3.3,1.5-.1,0-.3,0-.4,0-1.4.5-2.9,1.1-4.3,1.6-1,.4-2,.7-2.9,1-3.7,1.2-7.4,2-11.3,2.5-2.1.3-4.1.5-6.2.6-1.7.1-3.3.1-5,.1-7,0-13.9-1.1-20.6-3.1-1.8-.5-3.6-1.2-5.5-1.8-.2,0-.3-.1-.5-.2-2.3-1-4.6-2-6.9-3.1-1.5-.8-3-1.5-4.5-2.4-4.2-2.4-8.1-5.3-11.8-8.4-.2-.2-.4-.4-.6-.6-1.7-1.6-3.3-3.2-5-4.8-.6-.6-1.2-1.3-1.8-1.9-.2-.2-.4-.5-.6-.8-1-1.2-2-2.3-3-3.6-1.2-1.6-2.3-3.3-3.5-5-.1-.2-.2-.4-.3-.6-.3-.4-.6-.7-.8-1.1-.8-1.3-1.5-2.6-2.2-3.9,1.4-.7,2.8-1.3,4.3-2,.7-.4,1.4-.8,2.1-1.2,1.7-.9,3.4-1.8,5.1-2.8,1.5-.8,2.8-1.8,4-3,.5-.6.5-1.4.5-2.1.3-3,.5-6,.8-9,0-.6.3-1,.9-1.2.6-.2,1.2-.5,1.8-.7,1.3-.6,2.6-1.2,3.8-1.8,1-.5,2-1.1,2.9-1.7.7-.4,1.5-.8,2.2-1.3,2.8-2.1,5.6-4.2,8.4-6.3.5-.3.9-.7,1.4-1.1h53.8c1,.9,2.1,1.7,3,2.6.5.4.9,1,1.2,1.5.8,1.6,1.5,3.2,2.2,4.8.5,1.1,1,2.1,2.2,2.7,1.3.7,2.4,1.5,3.7,2.3,1.5,1.2,3,2.3,4.5,3.6.7.6,1.2,1.2,1.8,1.9,1.1.3,2.3.5,3.4.8,3.9,1,7.6,2.6,11.3,4.2,2.5,1.1,4.3,2.7,5.8,4.8,1.4,1.6,2.9,3.2,4.3,4.8.1.2.3.3.5.5Z"/>
  <path class="cls-7" d="M142.4,117.4c0,.2-.1.3-.2.5-2.6,4.1-5.6,8-9,11.5-.9.9-1.8,1.8-2.7,2.7-.6.6-1.3,1.2-2,1.7-.6.2-1.2.4-1.8.6-4.1,1.6-8.1,3.1-12.2,4.7-4.3,1.7-8.8,2.5-13.4,2.7-1.4,0-2.7,0-4.1.1-.8,0-1.7,0-2.5.1-2.1.3-4.2.6-6.3,1-.7.1-1.4.4-2.2.6-.1,0-.2.2-.3.3.1,0,.3.2.4.2.1,0,.3,0,.4,0,1.5,0,3-.2,4.5,0,2.3.3,4.5.8,6.8,1.2,2.5.5,4.9,1.1,7.4,1.7.4,0,.8.2,1.1.3-1.4.5-2.9,1.1-4.3,1.6-1,.4-2,.7-2.9,1-3.7,1.2-7.4,2-11.3,2.5-2.1.3-4.1.5-6.2.6-1.7.1-3.3.1-5,.1-7,0-13.9-1.1-20.6-3.1-1.8-.5-3.6-1.2-5.5-1.8-.2,0-.3-.1-.5-.2,0,0,.1-.2.2-.2,1.2-.6,2.3-1.2,3.5-1.6.5-.2,1-.3,1.5-.4,2.5-.7,5.1-.8,7.7-.9,3.6-.1,7.2,0,10.7-.1,1.1,0,2.2-.2,3.2-.2-1.4-.3-2.8-.4-4.3-.5-.9,0-1.8-.2-2.7-.3-1.4-.2-2.8-.3-4.2-.5-1.2-.1-2.4-.2-3.7-.4-1.4-.1-2.8-.3-4.2-.4-.9,0-1.8,0-2.7,0s-1.5,0-2.2,0c-.2,0-.4,0-.5,0-2.1.5-4.2,1-6.2,1.5-1.1.3-2.1.7-3.2,1.1-1.5-.8-3-1.5-4.5-2.4-4.2-2.4-8.1-5.3-11.8-8.4-.2-.2-.4-.4-.6-.6.1-.2.2-.4.4-.4,1.8-.9,3.3-2.1,4.7-3.4,1.7-1.5,3-3.3,3.8-5.4.6-1.8,1.1-3.7,1.6-5.5.7-2.2,1.9-3.9,3.6-5.4,1.4-1.2,3-2,4.7-2.6,1.4-.5,2.8-.9,4.3-.9,1.1,0,2.2,0,3.3.2,1.2.1,2.3.4,3.4.6.1,0,.3,0,.4,0,.2,0,.3,0,.5.1,6.2,2.3,12.1,5,18.1,7.7,4.5,2.1,9,3.9,13.7,5.4,3.4,1,6.9,1.1,10.5.7,1.6-.2,3.1-.4,4.7-.6.2,0,.5-.1.7-.2.6-.2,1.1-.3,1.7-.4,1.3-.3,2.7-.7,4-1,.2,0,.4-.1.6-.2.9-.2,1.8-.5,2.7-.7,0,0,.1,0,.2,0-.7.4-1.4.8-2,1.2-.9.5-1.7,1.1-2.6,1.6-1.1.6-2.1,1.2-3.2,1.8-1.1.6-2.2,1.1-3.3,1.5-2.3.9-4.7,1.6-7.2,1.6-1.7,0-3.3-.1-5-.2-2.2,0-4.4-.2-6.6-.2-1.8,0-3.6,0-5.5,0-1.6,0-3.1.1-4.7.2-.8,0-1.5.2-2.2.3-2.3.4-4.6,1.2-6.7,2.2-2.2,1-4.2,2.3-6.1,3.8-.3.3-.6.7-.9,1,.2,0,.4,0,.5,0,.4-.2.8-.5,1.3-.7,1.7-.8,3.4-1.6,5.2-2.3,1.9-.8,3.9-1.3,6-1.2,1.8.1,3.6.3,5.4.4,1.5.2,3,.3,4.4.6,3.2.7,6.5,1.4,9.7,2.1,3,.7,6,1.3,9.1.8,2.5-.4,4.9-1,7.2-2.1,2.9-1.3,5.4-3.3,7.8-5.4,1.8-1.6,3.5-3.3,5.3-4.9.9-.8,1.9-1.6,2.9-2.3.1,0,.2-.2.3-.2,1.1-.8,2.3-1.5,3.6-2,2.9-1.3,6-1.9,9.1-2.3.4,0,.7-.2,1-.3.4,0,.8,0,1.2,0,1.5.2,2.9.4,4.3.6Z"/>
  <path class="cls-9" d="M50.5,109.3c-.3,0-.6,0-.9,0-1.3.1-2.6.1-3.8.3-2.3.4-4.4,1.1-6.5,2.2-2.7,1.4-4.9,3.4-6.7,5.9-1,1.4-2.1,2.8-3.5,3.9-2.2,1.7-4.6,2.8-7.1,3.7-1,.4-2,.6-3,.9-1-1.2-2-2.3-3-3.6-1.2-1.6-2.3-3.3-3.5-5-.1-.2-.2-.4-.3-.6.5-.4,1.1-.8,1.6-1.1,1.9-1.2,3.9-1.7,6.1-1,1.4.4,2.6,1.1,3.8,2,.4.3.6.3,1,0,.8-.7,1.6-1.5,2.4-2.2,1.2-.9,2.4-1.8,3.5-2.7.1,0,.2,0,.3-.1,2-1.1,4.1-2.1,6.3-2.6,1.5-.3,2.9-.6,4.4-.7,1.3-.1,2.7,0,4,0,.8,0,1.5.1,2.3.2.8.2,1.6.3,2.4.5Z"/>
  <path class="cls-5" d="M56.7,110.9c-.1,0-.3,0-.4,0-1.1-.2-2.3-.4-3.4-.6-1.1-.1-2.2-.2-3.3-.2-1.5,0-2.9.4-4.3.9-1.7.6-3.3,1.4-4.7,2.6-1.7,1.5-3,3.2-3.6,5.4-.6,1.8-1,3.7-1.6,5.5-.8,2.1-2.1,3.9-3.8,5.4-1.4,1.3-3,2.5-4.7,3.4-.2,0-.2.3-.4.4-1.7-1.6-3.3-3.2-5-4.8-.6-.6-1.2-1.3-1.8-1.9-.2-.2-.4-.5-.6-.8,1-.3,2-.5,3-.9,2.5-.9,5-2,7.1-3.7,1.4-1.1,2.4-2.5,3.5-3.9,1.8-2.5,3.9-4.5,6.7-5.9,2.1-1,4.2-1.8,6.5-2.2,1.3-.2,2.5-.2,3.8-.3.3,0,.6,0,.9,0,2.1.3,4.2.9,6.2,1.6Z"/>
  <path class="cls-7" d="M137.4,116.3c-.3,0-.7.3-1,.3-.3,0-.6,0-.9.1-2.8.4-5.6,1-8.2,2.2-1.5.7-2.8,1.5-4.1,2.5-.1,0-.2.2-.3.2-.8.6-1.6,1.3-2.4,2-.9.9-1.9,1.7-2.8,2.6h15.6v3.2c-.9.9-1.8,1.8-2.7,2.7-.6.6-1.3,1.2-2,1.7-1,.8-1.9,1.7-2.9,2.5-4.8,3.8-9.9,7-15.4,9.6-1.1.5-2.2,1-3.3,1.5-.1,0-.3,0-.4,0-1.4.5-2.9,1.1-4.3,1.6h-46.7v-22.8h50.8c1.1-.6,2.2-1.2,3.2-1.8,1-.6,2.1-1.3,3.1-1.9.4-.3.9-.5,1.3-.8.2-.2.5-.3.7-.4,0,0,0,0,0,0,0,0,0,0,.1,0,.9-.3,1.7-.6,2.6-.9,0,0,.2,0,.3-.2,2.6-.8,5.2-1.7,7.8-2.4,3.2-.9,6.4-1.4,9.7-1.5.7,0,1.5,0,2.2,0Z"/>
  <path class="cls-4" d="M145.2,112.4c0,.2,0,.3-.1.5-.8,1.4-1.6,2.8-2.4,4.2,0,.1-.2.2-.3.3-1.4-.2-2.9-.4-4.3-.6-.4,0-.8,0-1.2,0-.7,0-1.5-.1-2.2,0-3.3,0-6.5.6-9.7,1.5-2.6.8-5.2,1.6-7.8,2.4,0-.2,0-.5.2-.7,1.1-1.5,2.5-2.6,4-3.7,4.1-3.2,8.6-5.7,13.5-7.6,1.8-.7,3.7-1.2,5.6-1.4,1.4,1.6,2.9,3.2,4.3,4.8.1.2.3.3.5.5Z"/>
  <path class="cls-5" d="M128.5,133.9c-1,.8-1.9,1.7-2.9,2.5-4.8,3.8-9.9,7-15.4,9.6-1.1.5-2.2,1-3.3,1.5-.1,0-.3,0-.4,0-.4-.1-.8-.3-1.1-.3-2.5-.6-4.9-1.2-7.4-1.7-2.2-.5-4.5-1-6.8-1.2-1.5-.2-3,0-4.5,0s-.3,0-.4,0c-.1,0-.3-.1-.4-.2.1-.1.2-.3.3-.3.7-.2,1.4-.4,2.2-.6,2.1-.3,4.2-.7,6.3-1,.8-.1,1.7,0,2.5-.1,1.3,0,2.7,0,4.1-.1,4.6-.1,9.1-1,13.4-2.7,4-1.6,8.1-3.1,12.2-4.7.6-.2,1.2-.4,1.8-.6Z"/>
  <path class="cls-4" d="M30.8,112.1c-1.2.9-2.4,1.8-3.5,2.7-.9.7-1.6,1.4-2.4,2.2-.4.3-.6.3-1,0-1.1-.9-2.4-1.6-3.8-2-2.2-.6-4.2-.2-6.1,1-.6.3-1.1.8-1.6,1.1-.3-.4-.6-.7-.8-1.1-.8-1.3-1.5-2.6-2.2-3.9,1.4-.7,2.8-1.3,4.3-2,.1,0,.3,0,.4,0,2.3,0,4.6.1,7,.5,2.4.4,4.8.7,7.2,1,.8.1,1.7.3,2.5.4Z"/>
  <path class="cls-5" d="M77.1,144.6c-1.1,0-2.2.2-3.2.2-3.6,0-7.2,0-10.7.1-3.1.1-6.2.4-9.2,1.4-1.2.4-2.4,1.1-3.5,1.6,0,0-.2.2-.2.2-2.3-1-4.6-2-6.9-3.1,1.1-.4,2.1-.8,3.2-1.1,2.1-.5,4.2-1,6.2-1.5.2,0,.4,0,.5,0,1.6-.1,3.3,0,4.9,0,1.4,0,2.8.3,4.2.4,1.2.1,2.4.2,3.7.4,1.4.2,2.8.3,4.2.5.9.1,1.8.2,2.7.3,1.4.2,2.9.3,4.3.5Z"/>
  <path class="cls-9" d="M83.5,61.2c0,.1,0,.3,0,.4,0,.3,0,.6,0,.9-.2,0-.4,0-.6,0-1.1.2-2.3.3-3.4.5,0-.3,0-.6,0-.8,0-2.7-.1-5.5-.2-8.2,0-3.6-.2-7.1-.3-10.7,0-1.7-.4-3.4-1-5-.6-1.7-1.5-3.1-3.3-3.8-1.1-.4-2.2-.7-3.3-.7h0c.1-1,.2-2,.4-2.9.1-.9.2-1.8.4-2.7,1.4,0,2.8.2,4.1.6,2.2.7,3.3,2.4,4.2,4.3,1,2.3,1.5,4.8,1.9,7.3.4,2.8.6,5.5.9,8.3.2,2.4.3,4.8.4,7.2,0,1.8,0,3.6.1,5.4Z"/>
  <path class="cls-3" d="M81,15.1h0s0,0,0,0c0,0,0,0,0,0h0Z"/>
  <path class="cls-6" d="M78.2,19.2c0,0-.1,0-.2,0,0,0,0,0,0,0,0,0,0,0,0,0s0,0,0,0Z"/>
  <path class="cls-6" d="M81,18.7v.2c0,0-.2,0-.3,0-1,0-1.9,0-2.9.1h0s0,0,0,0h0c1,0,1.9-.1,2.9-.2,0,0,.2,0,.3,0Z"/>
  <path class="cls-6" d="M81,23.4v1.7h-.7c0-.4,0-.8,0-1.2s0-.4,0-.5h.7Z"/>
  <path class="cls-6" d="M78.2,19.2h-.1s0,0,0,0,0,0,0,0Z"/>
  <path class="cls-6" d="M81.8,18.3c-.4,0-.5.3-.4.7,0,1.5.1,3,.2,4.5h-1.3c0-1.1,0-2.2-.5-3.2,0,0,0,0,0,0,0,0,0,0,0,0-.4-.6-.9-1-1.5-1h0s0,0,0,0c0,0,0,0,0,0,0,0,0,0,0,0,0,0,0,0,0,0c0,0,0,0,0,0,0,0,0,0,0,0h0c1,0,1.9,0,2.9-.1.1,0,.2,0,.3,0,.1,0,.1-.1,0-.3,0,0,0,0,0-.1,0,0-.2-.1-.3-.2-.3,0-.6,0-.8,0-.3,0-.6,0-.8,0-.4,0-.8,0-1.1,0h0c0-.8,0-1.6,0-2.4,0-.2-.1-.4-.2-.6,0,0,0,0,0,0h0c.5,0,1,0,1.5,0h1.9s0,0,0,0h0c0,.2,0,.3-.1.5l.2.4.5,1c.3,0,.5,0,.4.4,0,.4.1.9-.3.9Z"/>
  <path class="cls-6" d="M81,15.1h0s0,0,0,0c0,0,0,0,0,0h0Z"/>
  <path class="cls-1" d="M79,18.2c-.6,0-1.1,0-1.7,0h0c-.8,0-1.5.1-2.3.2,0,0,0,0-.2,0h0c-.2,0-.4,0-.6,0-.3,0-.6,0-.6-.4,0-.4,0-.7.5-.8.9-.3.9-.3.9-1.2h0c0-.1,0-.7,0-.7h0c.6,0,1.2,0,1.9,0,0,0,0,0,0,0,.2,0,.4,0,.6,0,0,0,0,0,0,0,0,.2.2.4.2.6,0,.8,0,1.6,0,2.4h0c.4,0,.8,0,1.1,0Z"/>
  <path class="cls-1" d="M74.8,18.4c0,0,.1,0,.2,0h0c0,0,0,0-.2,0h0Z"/>
  <path class="cls-1" d="M78,19.2s0,0-.1,0h0c-.2,0-.4.1-.6.3-.7.5-1.1,1.4-1.2,2.6,0,.2,0,.4,0,.5s0,.3,0,.5h0c0,.1,0,.2,0,.4h-1.5c0-1.1,0-2.4.1-3.6,0-.2.1-.5.2-.7,0,0,.1,0,.2,0,.8,0,1.6,0,2.3,0h0c.2,0,.3,0,.5,0,0,0,0,0,0,0,0,0,0,0,0,0,0,0,0,0,0,0Z"/>
  <path class="cls-1" d="M77.9,19h0c-.2,0-.3,0-.5,0h0c-.8,0-1.6,0-2.3,0,0,0,0,0-.2,0h0c0,0,.1,0,.2,0h0c.8-.1,1.6-.2,2.3-.2h0c.2,0,.3,0,.5,0h0c0,0,0,0,0,.1Z"/>
  <path class="cls-10" d="M77.2,19.5c0,0,0,.1-.1.2-.6.6-.9,1.3-1,2.2,0,.4,0,.8,0,1.3,0-.2,0-.3,0-.5s0-.4,0-.5c.1-1.1.6-2.1,1.2-2.6Z"/>
  <path class="cls-3" d="M81,18.8c0,0-.2,0-.3,0-1,0-1.9,0-2.9.1h0c-.2,0-.3,0-.5,0h0c-.8,0-1.6,0-2.3,0,0,0,0,0-.2,0v-.7c0,0,.1,0,.2,0h0c.8-.1,1.5-.2,2.3-.3h0c.6,0,1.1,0,1.7,0,.3,0,.6,0,.8,0,.3,0,.6,0,.8,0,0,0,.2,0,.3.2,0,0,0,0,0,.1,0,.2,0,.3,0,.3Z"/>
  <path class="cls-3" d="M75,18.4h0c0,0,0,0-.2,0h0c0,0,.1,0,.2,0Z"/>
  <path class="cls-11" d="M79.4,63c1.2-.2,2.3-.3,3.5-.5.2,0,.4,0,.6,0,.4,0,.9,0,1.3,0,.5,0,1,0,1.6.1.1,0,.3,0,.4,0,.4,0,.4.4.5.7,0,.2-.2.4-.1.6,0,2,0,3.9.1,5.9,0,.6,0,1.3,0,1.9.1,1.9.3,3.8.4,5.7,0,.9.2,1.9.3,2.8.1,1,.3,1.9.4,2.9-.2-.2-.4-.4-.5-.5,0,0,0,0,0,0,0,0,0,0,0,0,.2.5.3,1,.5,1.5,1.1,2.4,1.7,5.1,3.1,7.4.9,1.4,1.6,2.9,2.9,3.9,2.1,1.7,4.2,3.3,6.3,5,1.2,1,2.5,2,3.6,3.1,2.3,2.5,3.2,5.6,3.5,8.9.2,2.3.8,4.4,1.5,6.5.5,1.3.9,2.7,1.3,4-1.3.3-2.7.7-4,1-.2,0-.4,0-.6,0-.6,0-1.2,0-1.7-.2-2.1-.4-4.1-1.2-6-2.1-1-.5-2.1-1-2.7-2-1.1-1.8-2.2-3.7-3.4-5.5-.7-1.1-1.5-2.3-2.5-3.1-1.5-1.4-3.5-1.9-5.4-2.4-1.6-.5-3.3-.8-4.9-1.3-2.8-.8-4.9-2.5-6.6-4.7-1.6-2.1-2.9-4.3-4.4-6.4-.8-1.2-1.7-2.5-2.5-3.7-.5-.7-1-1.3-1.4-2-.3-.5-.7-.8-1.2-1-.6-.2-1.2-.4-1.8-.6-.5-.2-.5-.5-.4-.9,0-.4.4-.4.7-.4,1.5,0,3.1,0,4.6-.2,2.6-.4,5.2-1,7.7-1.6,3.7-.9,7.4-2,11.1-3,.7-.2,1.3-.4,2-.7-.1-.2-.2-.3-.4-.4-.8-.3-1.5-.6-2.3-.9-2.9-1.1-5.8-2.1-8.6-3.6-.7-.4-1.5-.6-2.2-.9-1.9-.7-3.9-.9-6-1.2-3.7-.5-7.1-1.8-10.5-3.2.2-.1.3-.2.5-.3,1.2-.6,2.4-1.3,3.6-1.9,2.4-1.1,4.7-2.1,7.1-3.2,3.6-1.2,7.3-2.3,11.1-3Z"/>
  <path class="cls-11" d="M104.2,124.2c-1.6.2-3.1.5-4.7.6-3.5.4-7,.3-10.5-.7-4.7-1.4-9.2-3.3-13.7-5.4-6-2.8-11.9-5.5-18.1-7.7-.2,0-.4,0-.5-.1-2-.7-4-1.3-6.2-1.6-.8-.2-1.6-.3-2.4-.5-.2-.1-.3-.3-.5-.4-1.1-.5-2.1-1-3.2-1.5-2.4-1.1-4.8-2.1-7.3-2.8-3.2-.8-6.4-1.4-9.7-1.2-.9,0-1.7.1-2.6.2.5-.6.5-1.4.5-2.1.3-3,.5-6,.8-9,0-.6.3-1,.9-1.2.6-.2,1.2-.5,1.8-.7.5,0,1.1-.2,1.7-.2,3.5,0,7-.1,10.4-.1s7.2,0,10.7,0c3.5,0,7,0,10.5,0,1.3,0,2.2.4,2.9,1.5,1.2,2.1,2.5,4.2,3.7,6.2,1.6,2.6,3.1,5.2,5.4,7.3,1.5,1.4,3.2,2.3,5.1,2.8,2.4.7,4.8,1.4,7.2,2,1.8.5,3.2,1.6,4.2,3.2,1.2,1.9,2.4,3.9,3.6,5.8.6,1,1.5,1.9,2.6,2.4,2.2.9,4.4,1.8,6.6,2.4.2,0,.4.2.6.4Z"/>
  <path class="cls-6" d="M140.5,107.1c-2,.2-3.8.7-5.6,1.4-4.9,1.9-9.4,4.4-13.5,7.6-1.5,1.1-2.9,2.3-4,3.7-.1.2-.2.5-.2.7,0,0-.2.1-.2.2-.9.3-1.7.6-2.6.9,0,0,0,0-.1,0,0,0,0,0,0,0-1,.3-1.9.5-2.9.8-.2,0-.4.1-.6.2-.4-1.3-.8-2.7-1.3-4-.7-2.1-1.4-4.2-1.5-6.5-.2-3.3-1.2-6.4-3.5-8.9-1.1-1.2-2.3-2.1-3.6-3.1-2.1-1.7-4.2-3.3-6.3-5-1.3-1-2.1-2.5-2.9-3.9-1.5-2.3-2.1-4.9-3.1-7.4-.2-.5-.4-1-.5-1.5h0c.1.2.3.3.5.6-.2-1-.3-2-.4-2.9,0-.7-.1-1.3-.2-1.9,0-.3,0-.6,0-.9-.2-1.9-.3-3.8-.4-5.6,0-.6,0-1.2,0-1.9,0-2,0-3.9-.1-5.9,0-.2,0-.4.1-.6,0,.2.1.4.2.6.2,1.8.3,3.5.5,5.3,0,.7.1,1.4.2,2.1,0,.1,0,.2,0,.3,0,2.2.1,4.3.3,6.5l.2,1.7c.3,2.7.8,5.3,1.8,7.8.6,1.5,1.4,2.9,2.8,3.7,3,1.6,6.2,2.5,9.5,3,2.2.3,4.5.5,6.7.9,2.6.5,5.1,1.1,7.6,1.6,1,.2,2,.5,3,.7,1.1.3,2.3.5,3.4.8,3.9,1,7.6,2.6,11.3,4.2,2.5,1.1,4.3,2.7,5.8,4.8Z"/>
  <path class="cls-2" d="M106.6,123.6c-.6.1-1.1.3-1.7.4-.2,0-.5.1-.7.2-.2-.1-.4-.3-.6-.4-2.3-.6-4.5-1.5-6.6-2.4-1.2-.5-2-1.4-2.6-2.4-1.2-1.9-2.4-3.9-3.6-5.8-1-1.6-2.3-2.7-4.2-3.2-2.4-.7-4.8-1.3-7.2-2-1.9-.5-3.6-1.5-5.1-2.8-2.3-2.1-3.8-4.7-5.4-7.3-1.3-2.1-2.5-4.1-3.7-6.2-.7-1.1-1.6-1.6-2.9-1.5-3.5,0-7,0-10.5,0-3.6,0-7.2,0-10.7,0s-6.9,0-10.4.1c-.5,0-1.1.1-1.7.2,1.3-.6,2.6-1.2,3.8-1.8,1-.5,2-1.1,2.9-1.7.7-.4,1.5-.8,2.2-1.3,2.8-2.1,5.6-4.2,8.4-6.3.5-.3.9-.7,1.4-1.1,1.3-1,2.5-2,3.7-3,.5-.3,1-.7,1.6-1,1.4-.8,2.7-1.7,4.1-2.5,3.4,1.4,6.9,2.7,10.5,3.2,2,.3,4,.5,6,1.2.8.3,1.5.5,2.2.9.8.4,1.6.8,2.4,1.2,2,.9,4.1,1.6,6.2,2.4.8.3,1.5.6,2.3.9.1,0,.2.1.4.4-.7.2-1.3.5-2,.7-3.7,1-7.4,2.1-11.1,3-2.5.6-5.1,1.2-7.7,1.6-1.5.2-3.1.2-4.6.2-.3,0-.6,0-.7.4,0,.4,0,.8.5.9.6.2,1.2.4,1.8.6.5.2.9.5,1.2,1,.4.7,1,1.3,1.4,2,.9,1.2,1.7,2.5,2.5,3.7,1.5,2.2,2.8,4.4,4.4,6.4,1.7,2.2,3.8,3.9,6.6,4.7,1.6.4,3.3.8,4.9,1.3,1.9.6,3.9,1.1,5.4,2.4,1,.9,1.7,2,2.5,3.1,1.2,1.8,2.3,3.6,3.4,5.5.6,1,1.7,1.5,2.7,2,1.9.9,3.9,1.7,6,2.1.6.1,1.1.1,1.7.2.2,0,.4,0,.6.1Z"/>
  <path class="cls-5" d="M114.3,121.6c.9-.3,1.7-.6,2.6-.9,0,0,.2,0,.3-.2,2.6-.8,5.2-1.6,7.8-2.4,3.2-.9,6.4-1.4,9.7-1.4.7,0,1.5,0,2.2,0-.3,0-.7.3-1,.3-3.2.3-6.2,1-9.1,2.3-2.6,1.1-4.8,2.8-6.8,4.6-1.8,1.6-3.5,3.3-5.3,4.9-2.4,2.1-4.9,4-7.8,5.4-2.3,1-4.7,1.7-7.3,2.1-3.1.4-6.1-.2-9.1-.8-3.2-.7-6.5-1.4-9.7-2.1-1.4-.3-2.9-.4-4.4-.6-1.8-.2-3.6-.3-5.4-.4-2.1-.1-4.1.4-6,1.2-1.8.7-3.5,1.5-5.2,2.3-.4.2-.8.5-1.3.7-.1,0-.3.1-.5,0,.3-.3.5-.7.9-1,1.8-1.6,3.9-2.9,6.1-3.8,2.2-1,4.4-1.8,6.7-2.2.7-.1,1.5-.2,2.2-.3,1.6-.1,3.1-.2,4.7-.2,1.8,0,3.7-.1,5.5,0,2.2,0,4.4.1,6.6.2,1.7,0,3.4.2,5,.2,2.5,0,4.9-.7,7.2-1.6,3.3-1.3,6.2-3.1,9.2-4.9.7-.4,1.4-.8,2-1.2,0,0,0,0,0,0,0,0,0,0,.1,0Z"/>
  <path class="cls-6" d="M48.1,108.8c-.8,0-1.5-.2-2.3-.2-1.3,0-2.7-.1-4,0-1.5.1-3,.4-4.4.7-2.2.5-4.3,1.5-6.3,2.6-.1,0-.2,0-.3.1-.8-.1-1.7-.3-2.5-.4-2.4-.3-4.8-.6-7.2-1-2.3-.4-4.6-.6-7-.5-.1,0-.3,0-.4,0,.7-.4,1.4-.8,2.1-1.2,1.7-.9,3.4-1.8,5.1-2.8,1.5-.8,2.8-1.8,4-3,.9,0,1.7-.2,2.6-.2,3.3-.1,6.5.4,9.7,1.2,2.5.7,5,1.7,7.3,2.8,1.1.5,2.1,1,3.2,1.5.2,0,.3.2.5.4Z"/>
  <path class="cls-4" d="M119.9,97.3c-1-.2-2-.5-3-.7-2.5-.6-5.1-1.2-7.6-1.6-2.2-.4-4.5-.6-6.7-.9-3.3-.5-6.5-1.4-9.5-3-1.5-.8-2.2-2.1-2.8-3.7-1-2.5-1.5-5.1-1.8-7.8l-.2-1.7c-.2-2.2-.4-4.3-.3-6.5,0-.1,0-.2,0-.3.2,0,.5-.1.7-.2,2.4-.9,4.9-1.6,7.5-1.8,1.9-.1,2.6.3,3.3,2.1.6,1.7.9,3.4.9,5.1,0,.8.3,1.4,1.1,1.7,1,.9,2.1,1.7,3,2.6.5.4.9,1,1.2,1.5.8,1.6,1.5,3.2,2.2,4.8.5,1.1,1,2.1,2.2,2.7,1.3.7,2.4,1.5,3.7,2.3,1.5,1.2,3,2.3,4.5,3.6.7.6,1.2,1.2,1.8,1.9Z"/>
  <path class="cls-10" d="M69.9,47c.2-2.1.4-4.3.6-6.4.2-2.3.5-4.6.7-7,1.2,0,2.2.3,3.3.7,1.8.7,2.7,2.1,3.3,3.8.6,1.6.9,3.3,1,5,.2,3.6.2,7.2.3,10.7,0,3,.1,6,.2,9.1-3.8.7-7.4,1.8-11.1,3,0-1.1.1-2.2.2-3.3,0-1,.1-2,.2-3,.2-1.9.3-3.8.5-5.8,0-1,.2-2,.3-3.1.1-1.3.2-2.6.3-3.9Z"/>
  <path class="cls-8" d="M102.2,73.7c0,1.2-.3,2.5-.5,3.7,0,.2-.2.4-.3.6-.8-.3-1-.9-1.1-1.7,0-1.8-.3-3.5-.9-5.1-.6-1.8-1.4-2.2-3.3-2.1-2.6.2-5.1.9-7.5,1.8-.2,0-.4.1-.7.2,0-.7-.1-1.4-.2-2.1-.1-1.8-.3-3.5-.5-5.3,0-.1,0-.2,0-.3h0c0-.1,0-.2,0-.3,0-.3,0-.6-.5-.8,0-.3,0-.6,0-.9-.2-2.8-.4-5.5-.6-8.3-.1-1.7-.2-3.5-.3-5.2.8.3,1.6.6,2.4,1,1.8.8,3.4,1.9,4.9,3.2,1,.9,2,1.9,2.9,2.9,1.1,1.4,2.1,2.9,3.2,4.3,0,.2.1.5.3.7.9,1.8,1.7,3.6,2.2,5.5.2.8.2,1.6.4,2.4.4,1.9.4,3.8.3,5.7Z"/>
  <path class="cls-8" d="M69.9,47c-.1,1.3-.2,2.6-.3,3.9,0,1-.2,2-.3,3.1-.2,1.9-.4,3.8-.5,5.8,0,1-.2,2-.2,3,0,1.1-.1,2.2-.2,3.3-2.4,1.1-4.8,2.1-7.1,3.2-1.2.6-2.4,1.3-3.6,1.9-.2,0-.3.2-.5.3-1.4.8-2.7,1.7-4.1,2.5-.5.3-1.1.7-1.6,1-.6-.3-.4-.8-.4-1.2-.3-1.9,0-3.8.2-5.7,0-.5.2-1,.3-1.5.7-2.1,1.3-4.3,2.4-6.3.4-.7.8-1.4,1.2-2.1,1-1.4,2-2.8,3.1-4,.8-.9,1.8-1.6,2.7-2.4.2-.2.4-.3.5-.5.8-.5,1.7-1.1,2.5-1.5,1.8-1,3.6-1.9,5.6-2.4.2,0,.3-.1.5-.2Z"/>
  <path class="cls-6" d="M87.8,82.3s0,0,0,0c0,0,0,0,0,0,0,0,0,0,0,0Z"/>
  <path class="cls-9" d="M114.3,121.6s0,0-.1,0c0,0,0,0,.1,0Z"/>
  <path class="cls-3" d="M86.6,61.6h0c-.5,0-1,0-1.5,0-.4,0-.8,0-1.3,0,0,0-.1,0-.2,0,0-.1,0-.3,0-.4,0-1.8,0-3.6-.1-5.4-.1-2.4-.2-4.8-.4-7.2-.2-2.8-.5-5.6-.9-8.3-.3-2.5-.8-5-1.9-7.3-.8-1.9-2-3.6-4.2-4.3-1.3-.4-2.7-.6-4.1-.6-.2-.2-.3-.4-.5-.5-.4-.2-.6-.4-.5-.8,0-.8,0-1.7.1-2.5,0-.4.3-.6.7-.6.8,0,1.6,0,2.3,0h.5s1.4-.1,1.4-.1h5.6c.8,0,1.7,0,2.5.1.9,0,.9,0,1,.9,0,.6.1,1.2.2,1.8,0,.6-.1,1.1-.7,1.3-.4.2-.5.4-.5.9.2,1.2.3,2.5.4,3.7,0,1,.2,2,.3,2.9,0,.5,0,1.1,0,1.6,0,1.1.2,2.1.3,3.2,0,.9.2,1.7.2,2.6,0,1.3.2,2.5.3,3.8,0,.6.1,1.2.2,1.7.1,1.8.2,3.5.3,5.2.2,2.8.4,5.5.6,8.3Z"/>
  <path class="cls-3" d="M86.7,62.4c-.1,0-.2,0-.4,0-.5,0-1-.1-1.5-.1-.4,0-.9,0-1.3,0,0-.3,0-.6,0-.9,0,0,.1,0,.2,0,.4,0,.9,0,1.3,0,.5,0,1,0,1.5,0h0c0,.3,0,.6,0,.9Z"/>
  <path class="cls-3" d="M82.5,14.9c-.2,0-.4.2-.7.2-.3,0-.5,0-.8,0h0s-1.9,0-1.9,0c-.5,0-1,0-1.5,0h0c-.2,0-.4,0-.6,0,0,0,0,0,0,0-.6,0-1.2,0-1.9,0h0c-.5,0-1,0-1.5-.1,0-.1,0-.3.1-.4,1-1.2,2-2.4,3.1-3.5.8-.8,1.2-1.6,1.2-2.8,0-2.4.3-4.7.5-7.1,0,1,0,2.1,0,3.1,0,1.7,0,3.3,0,4.9,0,.6.2,1,.6,1.4,1.1,1.1,2.2,2.3,3.3,3.4.2.2.2.4.3.7Z"/>
  <path class="cls-3" d="M81,15.1h0s0,0,0,0c0,0,0,0,0,0h0Z"/>
  <path class="cls-12" d="M80.2,23.4h-4.2c0-.1,0-.2,0-.3h0c0-.2,0-.3,0-.5s0-.4,0-.5c.1-1.1.6-2.1,1.2-2.6.2-.2.4-.3.6-.3h0s0,0,.1,0c0,0,0,0,0,0s0,0,0,0c0,0,0,0,0,0h0c.6,0,1.1.4,1.5,1,0,0,0,0,0,0,0,0,0,0,0,0,.5,1,.5,2.1.5,3.2Z"/>
</svg>
